<?xml version="1.0" encoding="utf-8"?>
<!-- Generator: Adobe Illustrator 16.0.0, SVG Export Plug-In . SVG Version: 6.00 Build 0)  -->
<!DOCTYPE svg PUBLIC "-//W3C//DTD SVG 1.1//EN" "http://www.w3.org/Graphics/SVG/1.1/DTD/svg11.dtd">
<svg version="1.1" id="Layer_1" xmlns="http://www.w3.org/2000/svg" xmlns:xlink="http://www.w3.org/1999/xlink" x="0px" y="0px"
	 width="1440px" height="216px" viewBox="0 0 1440 216" enable-background="new 0 0 1440 216" xml:space="preserve">
<g>
	<path fill="#2E2C2C" d="M675.644,81.891l-0.015,0.03l124.678,61.363l-0.002,0.011l38.51,18.953l0.006-0.015
		c2.478,0.87,5.271-0.219,6.459-2.654l4.65-9.501c1.184-2.418,0.35-5.271-1.825-6.7l0.017-0.034l-38.58-18.99l-3.651-1.796
		c-6.017-8.273-14.897-16.541-26.667-24.801c-15.158-10.633-24.619-18.714-28.383-24.24c-3.763-5.527-4.344-11.598-1.742-18.223
		c2.604-6.621,7.119-10.558,13.547-11.81c6.426-1.252,13.651-0.303,21.677,2.853c8.024,3.154,15.614,7.754,22.771,13.808
		c7.156,6.05,12.291,12.207,15.407,18.466l22.053-14.458c-5.032-9.17-11.163-18.047-20.102-25.519
		c-8.936-7.468-18.626-13.258-29.063-17.358c-16.206-6.369-31.406-7.62-45.607-3.757C735.581,21.38,725.51,30.87,719.57,45.98
		c-4.884,12.425-5.458,23.496-1.744,33.222l-32.892-16.189l-0.013,0.022c-2.472-0.864-5.26,0.224-6.45,2.659l-4.648,9.499
		C672.642,77.613,673.473,80.462,675.644,81.891z"/>
	<path fill="#2E2C2C" d="M25.91,200.647l43.505,0.002 M69.415,200.649l3.986-9.053l9.659-21.939h68.267l13.654,31.013h24.574h18.922
		h128.729h0.002h41.933v-99.475l77.24,99.475h43.887h163.841l0,0h196.535h0.002h98.886h18.922h24.573l13.653-31.013h68.268
		l13.654,31.013h24.573h18.922h124.634h0.001h41.935V162.44l19.896-21.455l45.25,59.685h40.18v-0.022
		c1.044-0.118,1.857-0.999,1.856-2.083l-0.005-4.204c-0.003-1.081-0.812-1.958-1.852-2.075v-0.003h-18.919v0.196l-49.542-68.463
		l54.808-59.686h-29.257l-62.416,66.513V64.33h-23.015v127.952h-18.92h-0.001h-25.55c5.198-3.12,10.661-7.802,16.384-14.043
		l-14.823-15.214c-6.242,5.852-12.224,10.112-17.945,12.776c-5.724,2.666-12.55,3.998-20.479,3.998
		c-12.746,0-23.766-4.648-33.062-13.947c-9.299-9.294-13.946-20.87-13.946-34.718c0-13.849,4.682-25.225,14.044-34.134
		c9.362-8.905,20.935-13.36,34.72-13.36c7.801,0,14.593,1.237,20.382,3.706c5.784,2.471,11.929,6.826,18.433,13.068l14.628-15.994
		c-14.174-15.604-31.827-23.406-52.956-23.406c-21.132,0-38.619,6.763-52.469,20.285c-13.847,13.525-20.772,30.3-20.772,50.322
		c0,13.265,2.956,25.162,8.876,35.694c5.914,10.532,14.01,18.855,24.282,24.966h-24.379h-18.922h-3.702L1063.1,64.33h-24.575
		l-56.37,127.952h-3.703h-18.922h-28.475V85.396h41.351V64.33H866.688v21.065h41.351v106.887H788.252
		c10.283-5.436,17.872-14.333,22.742-26.724c0.962-2.444,1.731-4.843,2.323-7.197l-32.196-15.846
		c2.021,4.595,2.015,9.481-0.021,14.666c-2.482,6.308-7.083,10.349-13.802,12.115c-6.723,1.767-14.521,0.902-23.401-2.589
		c-17.764-6.979-32.09-20.883-42.968-41.711l-24.601,13.526c3.009,6.235,5.723,12.548,9.875,17.986
		c3.192,4.351,6.846,8.536,10.974,12.557c8.781,8.551,18.486,15.401,29.11,20.54c2.014,0.976,4.017,1.864,6.011,2.676h-68.19l0,0
		H619.44c10.661-5.979,19.082-14.365,25.258-25.161c6.175-10.792,9.267-22.688,9.267-35.694c0-20.022-6.895-36.767-20.676-50.226
		c-13.784-13.457-30.817-20.187-51.103-20.187s-37.321,6.729-51.103,20.187c-13.785,13.459-20.675,30.203-20.675,50.226
		c0,13.136,3.087,25.035,9.264,35.694c6.175,10.665,14.596,19.051,25.259,25.161h-44.666h-18.92V64.33H458.33v101.816L379.139,64.33
		h-23.015v127.952h-18.917h-0.002h-28.865c6.891-3.511,12.742-7.93,17.554-13.262v-46.617h-23.016v37.449
		c-8.713,5.593-19.539,8.387-32.476,8.387c-12.939,0-23.96-4.389-33.06-13.166c-9.104-8.776-13.654-20.382-13.654-34.815
		c0-14.435,4.648-25.812,13.946-34.135c9.295-8.32,20.901-12.482,34.816-12.482c7.15,0,13.425,0.878,18.823,2.633
		c5.394,1.755,10.758,4.909,16.091,9.46l12.288-17.555c-13.004-11.439-29.354-17.164-49.055-17.164s-36.443,6.471-50.225,19.407
		c-13.785,12.941-20.676,29.354-20.676,49.25c0,13.917,3.346,26.399,10.045,37.449c6.696,11.054,15.702,19.44,27.014,25.161h-28.28
		h-18.922h-3.704L129.481,64.33h-24.576L48.536,192.282H31.756h-5.674c-0.059,0.002-0.115-0.003-0.173,0.003l0,0
		c-1.039,0.117-1.849,0.994-1.851,2.075l-0.005,4.204c-0.001,1.084,0.813,1.965,1.855,2.083 M92.421,148.396l24.771-56.174
		l24.771,56.174H92.421z M582.186,180.971c-13.525,0-24.936-4.81-34.231-14.435c-9.298-9.621-13.946-21.291-13.946-35.011
		c0-13.718,4.648-25.387,13.946-35.011c9.295-9.621,20.707-14.434,34.231-14.434c13.523,0,24.933,4.812,34.232,14.434
		c9.294,9.624,13.945,21.293,13.945,35.011c0,13.72-4.65,25.39-13.945,35.011C607.119,176.161,595.709,180.971,582.186,180.971z
		 M1026.04,148.396l24.771-56.174l24.771,56.174H1026.04z"/>
</g>
<g>
</g>
<g>
</g>
<g>
</g>
<g>
</g>
<g>
</g>
<g>
</g>
</svg>
